<svg width="64" height="64" viewBox="0 0 64 64" fill="none" xmlns="http://www.w3.org/2000/svg">
<path fill-rule="evenodd" clip-rule="evenodd" d="M7.64679 3.43848C7.73936 3.67961 7.81503 4.3656 7.81503 4.96289V6.04883H32.4466H57.0781L57.2499 5.00946C57.3444 4.43794 57.4232 3.75195 57.4248 3.48504C57.4276 3.02661 56.0551 3 32.4532 3C9.79345 3 7.49407 3.04074 7.64679 3.43848ZM8.0922 7.96655C8.0922 8.91529 9.47138 15.5149 10.4573 19.2849C11.4767 23.1819 11.6424 25.3324 11.1274 27.9766C10.5579 30.9001 10.0379 36.1893 9.8766 40.6947C9.76323 43.866 9.55702 45.82 9.20363 47.0695C8.55922 49.3484 8.17673 51.4022 7.94474 53.8304C7.84441 54.8814 7.5872 56.2379 7.37295 56.8449C6.88209 58.2365 6.87516 59.5653 7.35576 60.2224C7.59801 60.5534 8.25268 60.7967 9.22664 60.9176C10.0509 61.0196 21.0287 61.0897 33.6215 61.0733C59.5357 61.0392 57.9822 61.1737 57.9822 58.9641C57.9822 58.3482 57.8079 57.2598 57.595 56.5453C57.3821 55.8307 57.0642 53.969 56.8885 52.4083C56.7128 50.8476 56.2635 48.5493 55.8899 47.3012C55.3563 45.5182 55.21 44.4032 55.2078 42.101C55.2042 38.3836 54.7798 33.4692 54.088 29.1277C53.7906 27.2626 53.5475 25.2185 53.5475 24.5849C53.5475 23.9513 54.1057 21.2079 54.7879 18.4889C55.47 15.7696 56.2618 12.1701 56.5473 10.4899L57.0664 7.43467H32.5793C8.62048 7.43467 8.0922 7.44603 8.0922 7.96655ZM36.0603 18.9482C41.2314 20.1671 45.6707 24.5569 47.0372 29.8028C47.5255 31.6782 47.5721 34.8179 47.1419 36.87C46.6303 39.3108 44.8423 42.4181 42.9104 44.223C36.7235 50.0036 27.8389 49.9166 21.9505 44.0173C19.0805 41.142 17.5258 37.5106 17.5192 33.6668C17.5073 26.7848 22.1878 20.7254 28.8797 18.9601C30.8803 18.4321 33.8507 18.4274 36.0603 18.9482ZM27.3919 25.5567C27.0013 28.807 27.3151 30.1 28.773 31.2466C29.5443 31.8533 31.097 32.0401 31.097 31.5263C31.097 31.1072 29.6962 27.6046 29.3573 27.1761C29.2037 26.9818 29.1425 26.7584 29.2214 26.6795C29.4745 26.4261 30.8856 28.312 31.6203 29.8852C32.2775 31.2926 32.3279 31.6729 32.2761 34.844C32.2451 36.7328 32.1641 38.334 32.0959 38.4022C32.0278 38.4704 31.5882 38.2423 31.1189 37.8953C30.4352 37.3897 30.2655 37.0621 30.2655 36.2456C30.2655 33.5961 26.6067 32.6507 22.8865 34.3392L21.4666 34.9836L22.5173 36.5227C24.0673 38.7925 24.766 39.3507 26.2707 39.5203C27.2172 39.627 27.8292 39.5314 28.4947 39.173L29.4124 38.6788L28.7996 38.2063C28.4626 37.9466 27.345 37.3229 26.3159 36.8204C25.2868 36.3179 24.445 35.8506 24.445 35.7819C24.445 35.4374 26.9858 36.14 28.3254 36.8548C31.2381 38.4089 32.2057 39.6206 32.2057 41.7138C32.2057 43.1526 32.1979 43.1656 31.2326 43.3466C30.6974 43.4469 30.1949 43.6335 30.1161 43.761C30.0374 43.8885 29.3839 43.9275 28.6641 43.8477C27.3087 43.6975 25.253 44.2299 25.07 44.7787C24.9054 45.2729 28.337 46.7083 30.4765 47.0404C31.9532 47.2696 33.0134 47.2704 34.4923 47.0437C36.5287 46.7316 40.5207 45.1202 40.5207 44.6099C40.5207 44.2308 38.277 43.9214 37.2163 44.1545C36.6193 44.2856 35.9957 44.177 35.1814 43.7998C34.5356 43.5007 33.7891 43.1825 33.5222 43.0927C33.1118 42.9544 33.0372 42.5714 33.0372 40.6001V38.2708L34.2268 37.1741C36.0619 35.4828 40.5207 33.6352 40.5207 34.5662C40.5207 34.7356 40.3563 34.8742 40.1557 34.8742C39.7463 34.8742 37.0935 36.1882 36.104 36.8814L35.4594 37.3329L36.3965 37.9042C38.078 38.9291 39.7449 38.515 41.2419 36.7001C42.6405 35.0042 43.2924 34.1009 43.2924 33.8586C43.2924 33.5108 40.8317 32.4631 39.5143 32.2502C36.859 31.8206 34.7002 33 34.7002 34.88C34.7002 35.7417 34.545 36.0557 33.8873 36.5239L33.0743 37.1029L32.9865 34.301C32.9241 32.3104 32.9987 31.4162 33.2437 31.2136C33.4335 31.0565 33.7287 30.4619 33.8995 29.8921C34.5805 27.6185 32.2212 25.1891 28.5216 24.3549L27.5623 24.1384L27.3919 25.5567Z" fill="#C00F1A"/>
<path d="M12.7148 12.143V11.9861H12.5579V12.143H12.7148ZM12.7148 13V13.1569H12.8717V13H12.7148ZM12.3242 13H12.1673V13.1569H12.3242V13ZM12.3242 10.6367V10.4798H12.1673V10.6367H12.3242ZM13.6723 10.8263L13.571 10.9461L13.6723 10.8263ZM13.6624 11.9238L13.5551 11.8093L13.6624 11.9238ZM12.7148 10.9597V10.8028H12.5579V10.9597H12.7148ZM12.7148 11.8233H12.5579V11.9802H12.7148V11.8233ZM12.5579 12.143V13H12.8717V12.143H12.5579ZM12.7148 12.8431H12.3242V13.1569H12.7148V12.8431ZM12.4811 13V10.6367H12.1673V13H12.4811ZM12.3242 10.7937H13.0411V10.4798H12.3242V10.7937ZM13.0411 10.7937C13.2896 10.7937 13.4591 10.8515 13.571 10.9461L13.7736 10.7064C13.5866 10.5483 13.3353 10.4798 13.0411 10.4798V10.7937ZM13.571 10.9461C13.6789 11.0373 13.7395 11.1679 13.7395 11.3602H14.0533C14.0533 11.0933 13.9646 10.8679 13.7736 10.7064L13.571 10.9461ZM13.7395 11.3602C13.7395 11.55 13.6769 11.6952 13.5551 11.8093L13.7697 12.0384C13.9599 11.8602 14.0533 11.6296 14.0533 11.3602H13.7395ZM13.5551 11.8093C13.4349 11.922 13.2658 11.9861 13.0296 11.9861V12.3C13.3251 12.3 13.5779 12.218 13.7697 12.0384L13.5551 11.8093ZM13.0296 11.9861H12.7148V12.3H13.0296V11.9861ZM12.5579 10.9597V11.8233H12.8717V10.9597H12.5579ZM12.7148 11.9802H12.9686V11.6664H12.7148V11.9802ZM12.9686 11.9802C13.1587 11.9802 13.3299 11.9362 13.4567 11.8237L13.2484 11.5889C13.1995 11.6324 13.1146 11.6664 12.9686 11.6664V11.9802ZM13.4567 11.8237C13.5851 11.7098 13.6413 11.5532 13.6413 11.3767H13.3275C13.3275 11.4836 13.2959 11.5468 13.2484 11.5889L13.4567 11.8237ZM13.6413 11.3767C13.6413 11.2069 13.5909 11.0528 13.4656 10.945C13.3449 10.8411 13.1803 10.8028 12.9999 10.8028V11.1167C13.1425 11.1167 13.2202 11.1479 13.2609 11.1829C13.2972 11.2141 13.3275 11.2686 13.3275 11.3767H13.6413ZM12.9999 10.8028H12.7148V11.1167H12.9999V10.8028ZM14.4535 12.7083L14.3383 12.8149L14.3386 12.8152L14.4535 12.7083ZM16.1114 10.9268L15.9959 11.033L15.9962 11.0333L16.1114 10.9268ZM14.7616 11.1839L14.6417 11.0827L14.6413 11.0832L14.7616 11.1839ZM15.8098 12.4677L15.929 12.5697L15.8098 12.4677ZM15.8147 11.1723L15.6935 11.272L15.6939 11.2725L15.8147 11.1723ZM15.2725 12.8826C14.9693 12.8826 14.7401 12.7861 14.5683 12.6014L14.3386 12.8152C14.5777 13.0722 14.8946 13.1965 15.2725 13.1965V12.8826ZM14.5686 12.6017C14.3957 12.4149 14.3038 12.168 14.3038 11.8464H13.99C13.99 12.2323 14.1025 12.56 14.3383 12.8149L14.5686 12.6017ZM14.3038 11.8464C14.3038 11.496 14.3993 11.234 14.5754 11.0431L14.3447 10.8303C14.1033 11.092 13.99 11.4365 13.99 11.8464H14.3038ZM14.5754 11.0431C14.7495 10.8543 14.9882 10.7541 15.3104 10.7541V10.4403C14.9163 10.4403 14.5881 10.5664 14.3447 10.8303L14.5754 11.0431ZM15.3104 10.7541C15.6038 10.7541 15.8269 10.8494 15.9959 11.033L16.2268 10.8205C15.9915 10.5647 15.6807 10.4403 15.3104 10.4403V10.7541ZM15.9962 11.0333C16.1677 11.2188 16.2593 11.4656 16.2593 11.7887H16.5732C16.5732 11.4021 16.4615 11.0742 16.2266 10.8202L15.9962 11.0333ZM16.2593 11.7887C16.2593 12.1456 16.1639 12.4086 15.9897 12.5967L16.2199 12.81C16.4609 12.5498 16.5732 12.2031 16.5732 11.7887H16.2593ZM15.9897 12.5967C15.8159 12.7843 15.5826 12.8826 15.2725 12.8826V13.1965C15.6568 13.1965 15.9784 13.0707 16.2199 12.81L15.9897 12.5967ZM15.2907 10.7847C15.0293 10.7847 14.8086 10.8849 14.6417 11.0827L14.8816 11.2851C14.9872 11.1599 15.1192 11.0985 15.2907 11.0985V10.7847ZM14.6413 11.0832C14.477 11.2795 14.402 11.5307 14.402 11.8217H14.7159C14.7159 11.5852 14.776 11.4113 14.882 11.2846L14.6413 11.0832ZM14.402 11.8217C14.402 12.1108 14.475 12.3605 14.6355 12.5558L14.8779 12.3565C14.7747 12.2309 14.7159 12.0577 14.7159 11.8217H14.402ZM14.6355 12.5558C14.798 12.7536 15.0155 12.8537 15.2742 12.8537V12.5398C15.1065 12.5398 14.9791 12.4796 14.8779 12.3565L14.6355 12.5558ZM15.2742 12.8537C15.5399 12.8537 15.7645 12.7619 15.929 12.5697L15.6906 12.3656C15.5936 12.4789 15.4611 12.5398 15.2742 12.5398V12.8537ZM15.929 12.5697C16.0917 12.3797 16.1628 12.125 16.1628 11.8266H15.849C15.849 12.0776 15.7893 12.2503 15.6906 12.3656L15.929 12.5697ZM16.1628 11.8266C16.1628 11.5226 16.0943 11.2638 15.9356 11.0722L15.6939 11.2725C15.79 11.3885 15.849 11.5659 15.849 11.8266H16.1628ZM15.936 11.0727C15.776 10.878 15.5543 10.7847 15.2907 10.7847V11.0985C15.4731 11.0985 15.6008 11.1591 15.6935 11.2719L15.936 11.0727ZM18.2208 10.9696V11.1266H18.3778V10.9696H18.2208ZM17.5418 10.9696V10.8127H17.3849V10.9696H17.5418ZM17.5418 13V13.1569H17.6988V13H17.5418ZM17.1496 13H16.9927V13.1569H17.1496V13ZM17.1496 10.9696H17.3065V10.8127H17.1496V10.9696ZM16.4723 10.9696H16.3154V11.1266H16.4723V10.9696ZM16.4723 10.6367V10.4798H16.3154V10.6367H16.4723ZM18.2208 10.6367H18.3778V10.4798H18.2208V10.6367ZM18.2208 10.8127H17.5418V11.1266H18.2208V10.8127ZM17.3849 10.9696V13H17.6988V10.9696H17.3849ZM17.5418 12.8431H17.1496V13.1569H17.5418V12.8431ZM17.3065 13V10.9696H16.9927V13H17.3065ZM17.1496 10.8127H16.4723V11.1266H17.1496V10.8127ZM16.6292 10.9696V10.6367H16.3154V10.9696H16.6292ZM16.4723 10.7937H18.2208V10.4798H16.4723V10.7937ZM18.0639 10.6367V10.9696H18.3778V10.6367H18.0639ZM20.2611 13V13.1569H20.4868L20.4082 12.9453L20.2611 13ZM19.8309 13L19.683 13.0523L19.72 13.1569H19.8309V13ZM19.6184 12.3985L19.7663 12.3462L19.7293 12.2415H19.6184V12.3985ZM18.6889 12.3985V12.2415H18.5765L18.5403 12.348L18.6889 12.3985ZM18.4845 13V13.1569H18.5969L18.6331 13.0505L18.4845 13ZM18.056 13L17.9091 12.945L17.8297 13.1569H18.056V13ZM18.941 10.6367V10.4798H18.8322L18.7941 10.5817L18.941 10.6367ZM19.3827 10.6367L19.5298 10.5821L19.4918 10.4798H19.3827V10.6367ZM19.5145 12.0788V12.2357H19.7353L19.6627 12.0272L19.5145 12.0788ZM19.1866 11.1361L19.0371 11.1841L19.0384 11.1877L19.1866 11.1361ZM19.1553 10.9878L19.3102 10.9628L19.2889 10.8308H19.1553V10.9878ZM19.1487 10.9878V10.8308H19.0146L18.9937 10.9633L19.1487 10.9878ZM19.1157 11.1361L19.2641 11.1872L19.2646 11.1857L19.1157 11.1361ZM18.791 12.0788L18.6427 12.0277L18.571 12.2357H18.791V12.0788ZM20.2611 12.8431H19.8309V13.1569H20.2611V12.8431ZM19.9789 12.9477L19.7663 12.3462L19.4704 12.4508L19.683 13.0523L19.9789 12.9477ZM19.6184 12.2415H18.6889V12.5554H19.6184V12.2415ZM18.5403 12.348L18.3359 12.9495L18.6331 13.0505L18.8375 12.4489L18.5403 12.348ZM18.4845 12.8431H18.056V13.1569H18.4845V12.8431ZM18.203 13.055L19.088 10.6918L18.7941 10.5817L17.9091 12.945L18.203 13.055ZM18.941 10.7937H19.3827V10.4798H18.941V10.7937ZM19.2356 10.6914L20.114 13.0547L20.4082 12.9453L19.5298 10.5821L19.2356 10.6914ZM19.6627 12.0272L19.3348 11.0845L19.0384 11.1877L19.3663 12.1303L19.6627 12.0272ZM19.336 11.0881C19.3299 11.0693 19.321 11.0298 19.3102 10.9628L19.0003 11.0128C19.0115 11.082 19.0234 11.1413 19.0372 11.1841L19.336 11.0881ZM19.1553 10.8308H19.1487V11.1447H19.1553V10.8308ZM18.9937 10.9633C18.9844 11.0222 18.975 11.062 18.9668 11.0865L19.2646 11.1857C19.2806 11.1377 19.2932 11.0786 19.3037 11.0122L18.9937 10.9633ZM18.9673 11.085L18.6427 12.0277L18.9394 12.1299L19.2641 11.1872L18.9673 11.085ZM18.791 12.2357H19.5145V11.9218H18.791V12.2357ZM20.4786 12.9061H20.3217V12.9924L20.3947 13.0386L20.4786 12.9061ZM20.4786 12.5023L20.5842 12.3862L20.3217 12.1476V12.5023H20.4786ZM20.6072 12.5913L20.5333 12.7298L20.5346 12.7304L20.6072 12.5913ZM20.767 12.6589L20.7174 12.8078L20.7201 12.8086L20.767 12.6589ZM21.4575 12.6325L21.3697 12.5025L21.3689 12.503L21.4575 12.6325ZM21.5383 12.2485L21.4056 12.3323L21.4083 12.3364L21.5383 12.2485ZM21.4262 12.1348L21.5166 12.0065L21.4262 12.1348ZM21.2548 12.0376L21.1856 12.1784L21.1885 12.1798L21.2548 12.0376ZM21.0455 11.9387L20.9714 12.0774L20.9804 12.0815L21.0455 11.9387ZM20.6401 11.6635L20.5257 11.7709L20.528 11.7732L20.6401 11.6635ZM20.5198 11.4822L20.3755 11.5437L20.3763 11.5457L20.5198 11.4822ZM20.5511 10.9581L20.4174 10.8761L20.4171 10.8766L20.5511 10.9581ZM20.7489 10.7554L20.8343 10.887L20.8347 10.8868L20.7489 10.7554ZM21.0291 10.6367L21.066 10.7893L21.0675 10.7889L21.0291 10.6367ZM21.8893 10.6812H22.0463V10.5838L21.959 10.5406L21.8893 10.6812ZM21.8893 11.0685L21.7975 11.1958L22.0463 11.3752V11.0685H21.8893ZM21.1972 10.94L21.1681 10.7858L21.1675 10.7859L21.1972 10.94ZM21.0422 10.9944L20.9669 10.8567L20.9655 10.8575L21.0422 10.9944ZM21.0175 11.4772L20.9223 11.602L20.9239 11.6032L21.0175 11.4772ZM21.1724 11.5712L21.1012 11.711L21.1043 11.7125L21.1724 11.5712ZM21.385 11.6684L21.4576 11.5289L21.448 11.5247L21.385 11.6684ZM21.6174 11.8035L21.5317 11.935L21.5326 11.9356L21.6174 11.8035ZM21.8102 11.9601L21.6971 12.0689L21.6982 12.07L21.8102 11.9601ZM21.9421 12.1513L21.7991 12.216L21.8004 12.2187L21.9421 12.1513ZM21.7229 12.8929L21.6395 12.7599L21.6387 12.7604L21.7229 12.8929ZM20.9565 13.0297L20.9742 12.8737L20.9716 12.8735L20.9565 13.0297ZM20.7802 13.0033L20.811 12.8494L20.8083 12.8489L20.7802 13.0033ZM20.6355 12.9061V12.5023H20.3217V12.9061H20.6355ZM20.3731 12.6184C20.4202 12.6612 20.474 12.6981 20.5333 12.7298L20.681 12.4528C20.6414 12.4317 20.6096 12.4093 20.5842 12.3862L20.3731 12.6184ZM20.5346 12.7304C20.5928 12.7608 20.6538 12.7865 20.7174 12.8077L20.8166 12.51C20.7682 12.4939 20.7226 12.4745 20.6798 12.4522L20.5346 12.7304ZM20.7201 12.8086C20.7823 12.8281 20.8449 12.8435 20.9079 12.8546L20.9624 12.5455C20.9132 12.5368 20.8638 12.5247 20.814 12.5091L20.7201 12.8086ZM20.9079 12.8546C20.9711 12.8658 21.032 12.8718 21.09 12.8718V12.558C21.0536 12.558 21.0112 12.5541 20.9624 12.5455L20.9079 12.8546ZM21.09 12.8718C21.2668 12.8718 21.4274 12.8434 21.5462 12.762L21.3689 12.503C21.3273 12.5315 21.2429 12.558 21.09 12.558V12.8718ZM21.5454 12.7625C21.6731 12.6763 21.7364 12.5461 21.7364 12.3935H21.4226C21.4226 12.4497 21.4046 12.4789 21.3697 12.5025L21.5454 12.7625ZM21.7364 12.3935C21.7364 12.3108 21.7157 12.2308 21.6683 12.1606L21.4083 12.3364C21.4158 12.3475 21.4226 12.3642 21.4226 12.3935H21.7364ZM21.671 12.1647C21.6316 12.1024 21.5786 12.0502 21.5166 12.0065L21.3359 12.2631C21.3706 12.2875 21.3922 12.3111 21.4056 12.3323L21.671 12.1647ZM21.5166 12.0065C21.4592 11.9661 21.3937 11.9292 21.3212 11.8954L21.1885 12.1798C21.2478 12.2075 21.2966 12.2354 21.3359 12.2631L21.5166 12.0065ZM21.3241 11.8967C21.2577 11.8641 21.1865 11.8305 21.1106 11.7959L20.9804 12.0815C21.054 12.115 21.1223 12.1473 21.1856 12.1784L21.3241 11.8967ZM21.1195 11.8003C21.0424 11.7591 20.9711 11.7176 20.9055 11.676L20.7373 11.941C20.8102 11.9872 20.8883 12.0326 20.9716 12.0771L21.1195 11.8003ZM20.9055 11.676C20.8454 11.6378 20.7946 11.5969 20.7523 11.5537L20.528 11.7732C20.5889 11.8355 20.659 11.8913 20.7373 11.941L20.9055 11.676ZM20.7545 11.5561C20.716 11.515 20.6858 11.4694 20.6633 11.4187L20.3763 11.5457C20.4132 11.629 20.4632 11.7042 20.5257 11.7709L20.7545 11.5561ZM20.6642 11.4206C20.6456 11.3771 20.6339 11.3203 20.6339 11.2465H20.3201C20.3201 11.3529 20.3369 11.4532 20.3755 11.5437L20.6642 11.4206ZM20.6339 11.2465C20.6339 11.1594 20.653 11.0925 20.6852 11.0396L20.4171 10.8766C20.3503 10.9863 20.3201 11.1116 20.3201 11.2465H20.6339ZM20.6849 11.0401C20.7232 10.9777 20.7726 10.9271 20.8343 10.887L20.6635 10.6237C20.5626 10.6892 20.4802 10.7737 20.4174 10.8761L20.6849 11.0401ZM20.8347 10.8868C20.9008 10.8436 20.9774 10.8107 21.066 10.7893L20.9921 10.4842C20.872 10.5133 20.7618 10.5596 20.6631 10.624L20.8347 10.8868ZM21.0675 10.7889C21.1592 10.7657 21.2528 10.7541 21.3488 10.7541V10.4403C21.2272 10.4403 21.1077 10.455 20.9906 10.4846L21.0675 10.7889ZM21.3488 10.7541C21.5907 10.7541 21.7404 10.7826 21.8197 10.8219L21.959 10.5406C21.812 10.4678 21.6013 10.4403 21.3488 10.4403V10.7541ZM21.7324 10.6812V11.0685H22.0463V10.6812H21.7324ZM21.9811 10.9412C21.8138 10.8206 21.6066 10.7666 21.3718 10.7666V11.0804C21.559 11.0804 21.6968 11.1231 21.7975 11.1958L21.9811 10.9412ZM21.3718 10.7666C21.3037 10.7666 21.2357 10.773 21.1681 10.7858L21.2263 11.0942C21.2751 11.085 21.3236 11.0804 21.3718 11.0804V10.7666ZM21.1675 10.7859C21.0961 10.7996 21.0287 10.8228 20.9669 10.8567L21.1176 11.132C21.148 11.1153 21.184 11.1023 21.2268 11.0941L21.1675 10.7859ZM20.9655 10.8575C20.9017 10.8933 20.8473 10.9406 20.8046 10.9997L21.059 11.1835C21.0735 11.1635 21.0927 11.146 21.119 11.1312L20.9655 10.8575ZM20.8046 10.9997C20.754 11.0699 20.7321 11.151 20.7321 11.235H21.0459C21.0459 11.2068 21.0526 11.1924 21.059 11.1835L20.8046 10.9997ZM20.7321 11.235C20.7321 11.3098 20.7478 11.3833 20.7857 11.4496L21.0582 11.2939C21.0521 11.2833 21.0459 11.2656 21.0459 11.235H20.7321ZM20.7857 11.4496C20.8198 11.5093 20.8669 11.5597 20.9223 11.602L21.1127 11.3525C21.0846 11.331 21.068 11.3111 21.0582 11.2939L20.7857 11.4496ZM20.9239 11.6032C20.9754 11.6415 21.0349 11.6773 21.1012 11.711L21.2436 11.4313C21.1891 11.4035 21.1453 11.3767 21.1112 11.3513L20.9239 11.6032ZM21.1043 11.7125C21.1679 11.7432 21.2406 11.7764 21.322 11.8121L21.448 11.5247C21.3691 11.4901 21.3 11.4585 21.2406 11.4298L21.1043 11.7125ZM21.3126 11.8076C21.3908 11.8483 21.4638 11.8908 21.5317 11.935L21.7031 11.6721C21.626 11.6218 21.544 11.5742 21.4574 11.5292L21.3126 11.8076ZM21.5326 11.9356C21.597 11.9769 21.6515 12.0214 21.6971 12.0689L21.9233 11.8513C21.8591 11.7845 21.7851 11.7247 21.7022 11.6715L21.5326 11.9356ZM21.6982 12.07C21.7418 12.1145 21.7751 12.1631 21.7991 12.216L22.085 12.0865C22.0453 11.9988 21.9907 11.92 21.9223 11.8502L21.6982 12.07ZM21.8004 12.2187C21.8218 12.2637 21.8346 12.3192 21.8346 12.3886H22.1484C22.1484 12.28 22.1282 12.1772 22.0837 12.0838L21.8004 12.2187ZM21.8346 12.3886C21.8346 12.4874 21.8147 12.5595 21.7836 12.6124L22.0543 12.7712C22.12 12.6594 22.1484 12.5293 22.1484 12.3886H21.8346ZM21.7836 12.6124C21.7483 12.6726 21.701 12.7214 21.6395 12.7599L21.8062 13.0258C21.9096 12.9611 21.993 12.8758 22.0543 12.7712L21.7836 12.6124ZM21.6387 12.7604C21.575 12.8009 21.4987 12.8319 21.4079 12.8516L21.4743 13.1583C21.5966 13.1318 21.7082 13.0881 21.807 13.0253L21.6387 12.7604ZM21.4079 12.8516C21.3131 12.8721 21.2117 12.8826 21.1032 12.8826V13.1965C21.2321 13.1965 21.3559 13.1839 21.4743 13.1583L21.4079 12.8516ZM21.1032 12.8826C21.0716 12.8826 21.0291 12.8799 20.9742 12.8737L20.9389 13.1856C21.0005 13.1926 21.0557 13.1965 21.1032 13.1965V12.8826ZM20.9716 12.8735C20.9201 12.8685 20.8666 12.8605 20.811 12.8494L20.7494 13.1572C20.8147 13.1702 20.8787 13.1798 20.9415 13.1859L20.9716 12.8735ZM20.8083 12.8489C20.7534 12.8389 20.7022 12.8266 20.6547 12.812L20.5629 13.1121C20.6231 13.1306 20.6862 13.1457 20.7521 13.1577L20.8083 12.8489ZM20.6547 12.812C20.6089 12.798 20.5797 12.7844 20.5626 12.7735L20.3947 13.0386C20.4434 13.0695 20.501 13.0932 20.5629 13.1121L20.6547 12.812ZM22.3178 12.9061H22.1609V12.9924L22.2339 13.0386L22.3178 12.9061ZM22.3178 12.5023L22.4234 12.3862L22.1609 12.1476V12.5023H22.3178ZM22.4464 12.5913L22.3725 12.7298L22.3738 12.7304L22.4464 12.5913ZM22.6062 12.6589L22.5566 12.8078L22.5592 12.8086L22.6062 12.6589ZM23.2967 12.6325L23.2089 12.5025L23.2081 12.503L23.2967 12.6325ZM23.3775 12.2485L23.2448 12.3323L23.2475 12.3364L23.3775 12.2485ZM23.2654 12.1348L23.3558 12.0065L23.2654 12.1348ZM23.094 12.0376L23.0248 12.1784L23.0277 12.1798L23.094 12.0376ZM22.8847 11.9387L22.8106 12.0774L22.8196 12.0815L22.8847 11.9387ZM22.4793 11.6635L22.3649 11.7709L22.3672 11.7732L22.4793 11.6635ZM22.359 11.4822L22.2146 11.5437L22.2155 11.5457L22.359 11.4822ZM22.3903 10.9581L22.2566 10.8761L22.2562 10.8766L22.3903 10.9581ZM22.5881 10.7554L22.6735 10.887L22.6739 10.8868L22.5881 10.7554ZM22.8683 10.6367L22.9052 10.7893L22.9067 10.7889L22.8683 10.6367ZM23.7285 10.6812H23.8854V10.5838L23.7982 10.5406L23.7285 10.6812ZM23.7285 11.0685L23.6367 11.1958L23.8854 11.3752V11.0685H23.7285ZM23.0364 10.94L23.0073 10.7858L23.0067 10.7859L23.0364 10.94ZM22.8814 10.9944L22.8061 10.8567L22.8047 10.8575L22.8814 10.9944ZM22.8567 11.4772L22.7615 11.602L22.7631 11.6032L22.8567 11.4772ZM23.0116 11.5712L22.9404 11.711L22.9435 11.7125L23.0116 11.5712ZM23.2242 11.6684L23.2968 11.5289L23.2872 11.5247L23.2242 11.6684ZM23.4566 11.8035L23.3709 11.935L23.3718 11.9356L23.4566 11.8035ZM23.6494 11.9601L23.5363 12.0689L23.5374 12.07L23.6494 11.9601ZM23.7813 12.1513L23.6383 12.216L23.6396 12.2187L23.7813 12.1513ZM23.5621 12.8929L23.4787 12.7599L23.4779 12.7604L23.5621 12.8929ZM22.7957 13.0297L22.8134 12.8737L22.8108 12.8735L22.7957 13.0297ZM22.6194 13.0033L22.6502 12.8494L22.6475 12.8489L22.6194 13.0033ZM22.4747 12.9061V12.5023H22.1609V12.9061H22.4747ZM22.2123 12.6184C22.2594 12.6612 22.3132 12.6981 22.3725 12.7298L22.5202 12.4528C22.4806 12.4317 22.4488 12.4093 22.4234 12.3862L22.2123 12.6184ZM22.3738 12.7304C22.432 12.7608 22.4929 12.7865 22.5566 12.8077L22.6558 12.51C22.6074 12.4939 22.5618 12.4745 22.5189 12.4522L22.3738 12.7304ZM22.5592 12.8086C22.6215 12.8281 22.6841 12.8435 22.747 12.8546L22.8016 12.5455C22.7524 12.5368 22.703 12.5247 22.6532 12.5091L22.5592 12.8086ZM22.747 12.8546C22.8103 12.8658 22.8712 12.8718 22.9292 12.8718V12.558C22.8928 12.558 22.8504 12.5541 22.8016 12.5455L22.747 12.8546ZM22.9292 12.8718C23.106 12.8718 23.2666 12.8434 23.3854 12.762L23.2081 12.503C23.1665 12.5315 23.0821 12.558 22.9292 12.558V12.8718ZM23.3846 12.7625C23.5123 12.6763 23.5756 12.5461 23.5756 12.3935H23.2618C23.2618 12.4497 23.2438 12.4789 23.2089 12.5025L23.3846 12.7625ZM23.5756 12.3935C23.5756 12.3108 23.5549 12.2308 23.5075 12.1606L23.2475 12.3364C23.255 12.3475 23.2618 12.3642 23.2618 12.3935H23.5756ZM23.5102 12.1647C23.4708 12.1024 23.4178 12.0502 23.3558 12.0065L23.175 12.2631C23.2098 12.2875 23.2314 12.3111 23.2448 12.3323L23.5102 12.1647ZM23.3558 12.0065C23.2984 11.9661 23.2329 11.9292 23.1604 11.8954L23.0277 12.1798C23.087 12.2075 23.1358 12.2354 23.175 12.2631L23.3558 12.0065ZM23.1633 11.8967C23.0969 11.8641 23.0257 11.8305 22.9498 11.7959L22.8196 12.0815C22.8931 12.115 22.9615 12.1473 23.0248 12.1784L23.1633 11.8967ZM22.9587 11.8003C22.8816 11.7591 22.8103 11.7176 22.7447 11.676L22.5765 11.941C22.6494 11.9872 22.7275 12.0326 22.8108 12.0771L22.9587 11.8003ZM22.7447 11.676C22.6846 11.6378 22.6338 11.5969 22.5914 11.5537L22.3672 11.7732C22.4281 11.8355 22.4982 11.8913 22.5765 11.941L22.7447 11.676ZM22.5937 11.5561C22.5552 11.515 22.525 11.4694 22.5025 11.4187L22.2155 11.5457C22.2524 11.629 22.3024 11.7042 22.3649 11.7709L22.5937 11.5561ZM22.5034 11.4206C22.4848 11.3771 22.4731 11.3203 22.4731 11.2465H22.1592C22.1592 11.3529 22.1761 11.4532 22.2147 11.5437L22.5034 11.4206ZM22.4731 11.2465C22.4731 11.1594 22.4922 11.0925 22.5244 11.0396L22.2562 10.8766C22.1895 10.9863 22.1592 11.1116 22.1592 11.2465H22.4731ZM22.5241 11.0401C22.5624 10.9777 22.6117 10.9271 22.6735 10.887L22.5027 10.6237C22.4018 10.6892 22.3194 10.7737 22.2566 10.8761L22.5241 11.0401ZM22.6739 10.8868C22.74 10.8436 22.8166 10.8107 22.9052 10.7893L22.8313 10.4842C22.7111 10.5133 22.6009 10.5596 22.5023 10.624L22.6739 10.8868ZM22.9067 10.7889C22.9984 10.7657 23.092 10.7541 23.188 10.7541V10.4403C23.0664 10.4403 22.9469 10.455 22.8298 10.4846L22.9067 10.7889ZM23.188 10.7541C23.4299 10.7541 23.5796 10.7826 23.6589 10.8219L23.7982 10.5406C23.6511 10.4678 23.4405 10.4403 23.188 10.4403V10.7541ZM23.5716 10.6812V11.0685H23.8854V10.6812H23.5716ZM23.8203 10.9412C23.653 10.8206 23.4458 10.7666 23.211 10.7666V11.0804C23.3982 11.0804 23.536 11.1231 23.6367 11.1958L23.8203 10.9412ZM23.211 10.7666C23.1429 10.7666 23.0749 10.773 23.0073 10.7858L23.0654 11.0942C23.1143 11.085 23.1627 11.0804 23.211 11.0804V10.7666ZM23.0067 10.7859C22.9353 10.7996 22.8679 10.8228 22.8061 10.8567L22.9568 11.132C22.9872 11.1153 23.0232 11.1023 23.066 11.0941L23.0067 10.7859ZM22.8047 10.8575C22.7409 10.8933 22.6865 10.9406 22.6438 10.9997L22.8982 11.1835C22.9127 11.1635 22.9319 11.146 22.9582 11.1312L22.8047 10.8575ZM22.6438 10.9997C22.5931 11.0699 22.5712 11.151 22.5712 11.235H22.8851C22.8851 11.2068 22.8918 11.1924 22.8982 11.1835L22.6438 10.9997ZM22.5712 11.235C22.5712 11.3098 22.587 11.3833 22.6249 11.4496L22.8974 11.2939C22.8913 11.2833 22.8851 11.2656 22.8851 11.235H22.5712ZM22.6249 11.4496C22.659 11.5093 22.7061 11.5597 22.7615 11.602L22.9519 11.3525C22.9238 11.331 22.9072 11.3111 22.8974 11.2939L22.6249 11.4496ZM22.7631 11.6032C22.8146 11.6415 22.8741 11.6773 22.9404 11.711L23.0828 11.4313C23.0283 11.4035 22.9845 11.3767 22.9504 11.3513L22.7631 11.6032ZM22.9435 11.7125C23.0071 11.7432 23.0797 11.7764 23.1612 11.8121L23.2872 11.5247C23.2083 11.4901 23.1392 11.4585 23.0798 11.4298L22.9435 11.7125ZM23.1518 11.8076C23.23 11.8483 23.303 11.8908 23.3709 11.935L23.5423 11.6721C23.4652 11.6218 23.3832 11.5742 23.2966 11.5292L23.1518 11.8076ZM23.3718 11.9356C23.4362 11.9769 23.4907 12.0214 23.5363 12.0689L23.7625 11.8513C23.6983 11.7845 23.6242 11.7247 23.5414 11.6715L23.3718 11.9356ZM23.5374 12.07C23.581 12.1145 23.6143 12.1631 23.6383 12.216L23.9242 12.0865C23.8845 11.9988 23.8299 11.92 23.7614 11.8502L23.5374 12.07ZM23.6396 12.2187C23.661 12.2637 23.6738 12.3192 23.6738 12.3886H23.9876C23.9876 12.28 23.9674 12.1772 23.9229 12.0838L23.6396 12.2187ZM23.6738 12.3886C23.6738 12.4874 23.6539 12.5595 23.6228 12.6124L23.8935 12.7712C23.9592 12.6594 23.9876 12.5293 23.9876 12.3886H23.6738ZM23.6228 12.6124C23.5875 12.6726 23.5401 12.7214 23.4787 12.7599L23.6454 13.0258C23.7488 12.9611 23.8322 12.8758 23.8935 12.7712L23.6228 12.6124ZM23.4779 12.7604C23.4142 12.8009 23.3379 12.8319 23.2471 12.8516L23.3135 13.1583C23.4357 13.1318 23.5474 13.0881 23.6462 13.0253L23.4779 12.7604ZM23.2471 12.8516C23.1523 12.8721 23.0509 12.8826 22.9424 12.8826V13.1965C23.0713 13.1965 23.1951 13.1839 23.3135 13.1583L23.2471 12.8516ZM22.9424 12.8826C22.9108 12.8826 22.8683 12.8799 22.8134 12.8737L22.7781 13.1856C22.8397 13.1926 22.8949 13.1965 22.9424 13.1965V12.8826ZM22.8108 12.8735C22.7593 12.8685 22.7058 12.8605 22.6502 12.8494L22.5886 13.1572C22.6539 13.1702 22.7179 13.1798 22.7807 13.1859L22.8108 12.8735ZM22.6475 12.8489C22.5925 12.8389 22.5414 12.8266 22.4939 12.812L22.4021 13.1121C22.4623 13.1306 22.5254 13.1457 22.5913 13.1577L22.6475 12.8489ZM22.4939 12.812C22.4481 12.798 22.4189 12.7844 22.4018 12.7735L22.2339 13.0386C22.2826 13.0695 22.3402 13.0932 22.4021 13.1121L22.4939 12.812ZM24.6679 13V13.1569H24.8248V13H24.6679ZM24.2641 13H24.1072V13.1569H24.2641V13ZM24.2641 10.6367V10.4798H24.1072V10.6367H24.2641ZM24.6679 10.6367H24.8248V10.4798H24.6679V10.6367ZM24.6679 12.8431H24.2641V13.1569H24.6679V12.8431ZM24.4211 13V10.6367H24.1072V13H24.4211ZM24.2641 10.7937H24.6679V10.4798H24.2641V10.7937ZM24.511 10.6367V13H24.8248V10.6367H24.511ZM25.2233 10.6367V10.4798H25.0664V10.6367H25.2233ZM25.6155 10.6367H25.7724V10.4798H25.6155V10.6367ZM26.6768 10.6367V10.4798H26.5199V10.6367H26.6768ZM27.0691 10.6367H27.226V10.4798H27.0691V10.6367ZM26.9121 12.0441C26.9121 12.3538 26.8387 12.5569 26.7195 12.6828C26.6018 12.8071 26.4142 12.8826 26.1264 12.8826V13.1965C26.467 13.1965 26.7508 13.1061 26.9473 12.8986C27.1423 12.6927 27.226 12.3981 27.226 12.0441H26.9121ZM26.1264 12.8826C25.852 12.8826 25.6743 12.8103 25.5632 12.6925C25.4504 12.573 25.3802 12.3792 25.3802 12.0821H25.0664C25.0664 12.4232 25.1466 12.7082 25.3349 12.9078C25.5248 13.1092 25.7987 13.1965 26.1264 13.1965V12.8826ZM25.3802 12.0821V10.6367H25.0664V12.0821H25.3802ZM25.2233 10.7937H25.6155V10.4798H25.2233V10.7937ZM25.4586 10.6367V12.0013H25.7724V10.6367H25.4586ZM25.4586 12.0013C25.4586 12.2491 25.506 12.4638 25.6267 12.6192C25.7533 12.7821 25.9396 12.8537 26.1561 12.8537V12.5398C26.0121 12.5398 25.9281 12.4956 25.8745 12.4266C25.8151 12.3501 25.7724 12.2171 25.7724 12.0013H25.4586ZM26.1561 12.8537C26.3659 12.8537 26.5473 12.7841 26.6706 12.6253C26.788 12.4741 26.8338 12.2656 26.8338 12.026H26.5199C26.5199 12.2336 26.4789 12.3605 26.4227 12.4328C26.3724 12.4977 26.2934 12.5398 26.1561 12.5398V12.8537ZM26.8338 12.026V10.6367H26.5199V12.026H26.8338ZM26.6768 10.7937H27.0691V10.4798H26.6768V10.7937ZM26.9121 10.6367V12.0441H27.226V10.6367H26.9121ZM30.1624 13V13.1569H30.3193V13H30.1624ZM29.7735 13H29.6165V13.1569H29.7735V13ZM29.7965 11.0108L29.9529 11.0241L29.9673 10.8539H29.7965V11.0108ZM29.7899 11.0108V10.8539H29.6655L29.6371 10.9751L29.7899 11.0108ZM29.7257 11.2333L29.5807 11.1732L29.5799 11.1751L29.7257 11.2333ZM29.0203 13V13.1569H29.1266L29.1661 13.0582L29.0203 13ZM28.75 13L28.6045 13.0587L28.6441 13.1569H28.75V13ZM28.043 11.2465L27.8965 11.3026L27.8975 11.3052L28.043 11.2465ZM27.9804 11.0108L28.134 10.9788L28.108 10.8539H27.9804V11.0108ZM27.9738 11.0108V10.8539H27.8016L27.8176 11.0254L27.9738 11.0108ZM27.987 13V13.1569H28.1439V13H27.987ZM27.6244 13H27.4675V13.1569H27.6244V13ZM27.6244 10.6367V10.4798H27.4675V10.6367H27.6244ZM28.1765 10.6367L28.3225 10.5791L28.2833 10.4798H28.1765V10.6367ZM28.7978 12.2106L28.944 12.1535L28.9438 12.153L28.7978 12.2106ZM28.8901 12.4809L28.7376 12.5176L28.7665 12.6378H28.8901V12.4809ZM28.8984 12.4809V12.6378H29.0121L29.0475 12.5297L28.8984 12.4809ZM28.9972 12.204L29.142 12.2646L29.1428 12.2628L28.9972 12.204ZM29.6301 10.6367V10.4798H29.5242L29.4846 10.578L29.6301 10.6367ZM30.1624 10.6367H30.3193V10.4798H30.1624V10.6367ZM30.1624 12.8431H29.7735V13.1569H30.1624V12.8431ZM29.9304 13V11.4706H29.6165V13H29.9304ZM29.9304 11.4706C29.9304 11.3513 29.9377 11.2028 29.9529 11.0241L29.6402 10.9976C29.6246 11.1815 29.6165 11.3395 29.6165 11.4706H29.9304ZM29.7965 10.8539H29.7899V11.1678H29.7965V10.8539ZM29.6371 10.9751C29.6132 11.0774 29.5941 11.1408 29.5807 11.1732L29.8706 11.2934C29.8946 11.2357 29.9183 11.1509 29.9427 11.0466L29.6371 10.9751ZM29.5799 11.1751L28.8746 12.9418L29.1661 13.0582L29.8714 11.2915L29.5799 11.1751ZM29.0203 12.8431H28.75V13.1569H29.0203V12.8431ZM28.8956 12.9413L28.1886 11.1878L27.8975 11.3052L28.6045 13.0587L28.8956 12.9413ZM28.1896 11.1904C28.1744 11.1508 28.1556 11.0823 28.134 10.9788L27.8268 11.0428C27.8492 11.1504 27.8721 11.2389 27.8965 11.3026L28.1896 11.1904ZM27.9804 10.8539H27.9738V11.1678H27.9804V10.8539ZM27.8176 11.0254C27.8256 11.112 27.8301 11.2601 27.8301 11.4739H28.1439C28.1439 11.2593 28.1396 11.0986 28.1301 10.9963L27.8176 11.0254ZM27.8301 11.4739V13H28.1439V11.4739H27.8301ZM27.987 12.8431H27.6244V13.1569H27.987V12.8431ZM27.7814 13V10.6367H27.4675V13H27.7814ZM27.6244 10.7937H28.1765V10.4798H27.6244V10.7937ZM28.0306 10.6944L28.6519 12.2682L28.9438 12.153L28.3225 10.5791L28.0306 10.6944ZM28.6517 12.2677C28.6985 12.3876 28.7259 12.4693 28.7376 12.5176L29.0427 12.4441C29.0257 12.3738 28.9916 12.2753 28.944 12.1535L28.6517 12.2677ZM28.8901 12.6378H28.8984V12.324H28.8901V12.6378ZM29.0475 12.5297C29.0879 12.4064 29.1192 12.319 29.142 12.2645L28.8525 12.1435C28.8247 12.2099 28.7902 12.307 28.7492 12.432L29.0475 12.5297ZM29.1428 12.2628L29.7756 10.6955L29.4846 10.578L28.8517 12.1453L29.1428 12.2628ZM29.6301 10.7937H30.1624V10.4798H29.6301V10.7937ZM30.0055 10.6367V13H30.3193V10.6367H30.0055Z" fill="#DEDEDE"/>
</svg>
