<svg width="64" height="64" viewBox="0 0 64 64" fill="none" xmlns="http://www.w3.org/2000/svg">
<path fill-rule="evenodd" clip-rule="evenodd" d="M12.0004 5.3757C11.8358 5.53979 11.7013 6.34678 11.7013 7.16901V8.66329H17.9779H24.2545V6.86998V5.07666H18.277C14.9889 5.07666 12.1645 5.21116 12.0004 5.3757ZM25.1512 6.80676V8.59873L27.7291 8.96726C30.9346 9.42545 40.7871 9.41693 43.6447 8.95381L45.7743 8.60815V6.80407V5L42.2998 5.3748C37.9088 5.84779 33.5681 5.85048 28.8499 5.38198L25.1512 5.01524V6.80676ZM46.671 6.86998V8.6884L52.8355 8.56376L59 8.43913V6.86998V5.30083L52.8355 5.17619L46.671 5.05156V6.86998ZM12.4339 10.5687C13.4767 12.301 18.5244 18.6982 20.7683 21.1313C22.2034 22.6875 23.2413 24.1804 23.0754 24.4494C22.8948 24.7417 21.973 24.0096 20.7836 22.6292C19.6892 21.3591 18.6101 20.3198 18.3859 20.3198C18.1613 20.3198 17.9779 21.5303 17.9779 23.0098C17.9779 25.2927 18.099 25.6998 18.7778 25.6998C19.218 25.6998 19.9743 26.3534 20.459 27.1519C22.8553 31.1012 23.0306 33.8661 21.1221 37.6294C20.3855 39.0819 19.7802 40.9533 19.7771 41.788L19.7713 43.3056L20.5841 42.2364C21.0311 41.6482 21.7645 40.1817 22.2133 38.9775C23.7762 34.7847 27.2162 32.4332 31.7941 32.4274C33.5937 32.4247 33.7084 32.496 33.4247 33.4334C32.7203 35.763 30.7454 38.7417 29.1915 39.8185C28.2666 40.4596 26.2873 41.203 24.7396 41.4908C21.8519 42.0279 20.7706 42.9116 20.0111 45.3545C19.7121 46.318 19.6022 46.226 18.6666 44.2337C17.5413 41.8356 15.548 39.7109 15.1015 40.4332C14.9472 40.6834 15.0929 41.0514 15.4261 41.2518C16.5384 41.9203 18.4263 45.1711 18.4263 46.4184C18.4263 47.346 18.1595 47.7176 17.348 47.9216C16.7549 48.0705 15.8121 48.6793 15.2525 49.2751C14.6729 49.892 13.7233 50.3578 13.0463 50.3578C11.8403 50.3578 9.90802 51.9723 9.90802 52.9797C9.90802 53.2801 9.20191 54.2323 8.33887 55.0953C7.47584 55.9584 6.76972 57.0613 6.76972 57.5459C6.76972 58.4013 7.1378 58.4278 19.0239 58.4278C25.7641 58.4278 31.4049 58.3013 31.5592 58.1467C31.9685 57.7378 30.684 55.4441 29.8712 55.1321C29.4901 54.9859 28.94 54.3058 28.6486 53.6208C27.7995 51.6262 26.4401 50.3578 25.1512 50.3578C24.4742 50.3578 23.5247 49.892 22.945 49.2751C22.3855 48.6793 21.4426 48.0705 20.8495 47.9216C20.2563 47.7728 19.7713 47.4312 19.7713 47.1626C19.7713 46.4686 22.0322 47.0998 23.1337 48.101C23.6269 48.5493 24.6715 49.0514 25.4547 49.2169C27.0983 49.5643 29.0875 51.3778 29.4619 52.8703C29.604 53.4352 30.19 54.2054 30.7647 54.582C31.3395 54.9586 32.0671 55.9781 32.3814 56.8474L32.953 58.4278L40.8207 58.4318C46.9453 58.4349 49.799 58.2269 53.7017 57.4925C59.1592 56.465 59.5214 56.1005 56.7732 54.4018C55.0408 53.3312 54.2275 53.2908 51.8267 54.1556C49.7268 54.912 47.5676 55.0326 47.5676 54.3928C47.5676 54.1462 48.0783 53.9445 48.7028 53.9445C49.3273 53.9445 50.5378 53.6522 51.3928 53.2948L52.9476 52.6452V36.4825C52.9476 26.7794 52.7803 20.3198 52.5293 20.3198C52.2993 20.3198 51.3672 21.2277 50.4575 22.3373C48.8956 24.2441 48.016 24.8323 48.016 23.9715C48.016 23.7603 49.1861 22.2979 50.6163 20.7211C53.1861 17.8881 56.536 13.6344 58.0823 11.2412L58.8789 10.0083H52.5674H46.2563L44.3338 12.7933C43.2767 14.3248 42.2715 15.7814 42.0998 16.0307C41.9285 16.2795 41.6465 16.3418 41.4739 16.1688C41.3013 15.9962 41.6595 15.0941 42.2706 14.1643C42.8812 13.2349 43.708 11.9697 44.1074 11.3533L44.8337 10.2324H35.5004H26.1667L27.9313 12.831C29.8797 15.6998 30.072 17.4281 28.1501 14.7973C27.487 13.8895 26.4298 12.4405 25.8008 11.5774L24.6571 10.0083H18.3769C13.4718 10.0083 12.1707 10.1311 12.4339 10.5687ZM41.9164 18.6606C43.0561 19.494 42.7203 21.7563 41.3708 22.3373C40.3549 22.7749 40.3338 22.9085 40.4822 27.9414L40.6342 33.0972L44.1007 40.2216C46.0074 44.14 47.5676 47.8078 47.5676 48.3718C47.5676 49.5755 46.5589 50.7066 45.1825 51.0456C44.645 51.1783 40.9938 51.229 37.0687 51.1586C31.8519 51.0649 29.8824 50.8797 29.7461 50.4699C29.6018 50.0355 31.3628 49.9095 37.5775 49.9095C45.5649 49.9095 46.671 49.714 46.671 48.3014C46.671 48.0086 45.1265 44.5686 43.239 40.6574C41.3515 36.7457 39.6869 32.7385 39.5403 31.7522C39.3108 30.2082 39.1023 29.9392 38.0406 29.8172C37.3623 29.7392 36.8077 29.5003 36.8077 29.2864C36.8077 29.0726 37.3623 28.8336 38.0406 28.7556C39.7775 28.5561 40.063 26.7247 38.3899 26.5166C36.8866 26.3297 36.8866 25.5182 38.3894 25.3313C39.3569 25.2107 39.5277 24.986 39.4121 23.9863C39.2776 22.8224 39.1749 22.7816 36.0402 22.6543L32.8069 22.5229L32.6777 26.6892C32.5136 31.9809 31.6748 32.0454 31.5896 26.7726C31.5318 23.1986 31.4502 22.8798 30.4688 22.3929C29.1763 21.7522 28.8521 19.8213 29.8663 18.8072C30.4563 18.2167 31.5968 18.0782 35.8573 18.0782C39.4659 18.0782 41.3699 18.2611 41.9164 18.6606ZM30.2334 20.1257C29.7295 21.4393 30.7849 21.6958 36.1725 21.5675C41.3273 21.4451 41.5201 21.4052 41.6587 20.4319C41.8003 19.4317 41.7546 19.4232 36.1523 19.4232C31.4368 19.4232 30.4585 19.5393 30.2334 20.1257ZM18.5809 27.5702C17.7775 28.6072 16.6325 31.9477 16.6446 33.2182C16.6513 33.8916 17.0382 35.2492 17.505 36.2355L18.3536 38.0288L18.39 35.8993C18.4169 34.3211 18.6007 33.7697 19.0988 33.7697C19.6 33.7697 19.7753 34.3122 19.7869 35.8993C19.8026 37.9634 19.8224 37.9943 20.4321 36.908C21.9035 34.2862 21.6332 30.4095 19.8098 27.9925C19.1956 27.1779 18.9504 27.0936 18.5809 27.5702ZM6.11158 34.3301C6.90422 37.0071 11.0553 40.4713 13.4893 40.4874C14.5352 40.4942 14.4998 40.4202 12.9289 39.3021C11.3539 38.1812 10.7962 37.3563 11.6144 37.3563C11.813 37.3563 12.659 37.8607 13.4947 38.4771C14.3303 39.0936 15.0885 39.598 15.1795 39.598C15.6744 39.598 13.1051 35.7952 12.1528 35.1183C10.9813 34.2862 8.03222 33.3281 6.6276 33.3241C5.99232 33.3218 5.87845 33.5442 6.11158 34.3301ZM28.6441 33.7643C26.6822 34.3561 24.9956 35.784 23.8484 37.8253C22.7665 39.7504 22.8997 39.7845 25.2202 38.1794C26.532 37.272 26.9445 37.1653 26.9445 37.7329C26.9445 37.94 26.1904 38.6462 25.2687 39.3021C23.8842 40.2875 23.7578 40.4946 24.5415 40.4946C26.0528 40.4946 28.4137 39.3303 29.6955 37.9535C30.7584 36.8116 32.3245 34.1987 32.3245 33.5679C32.3245 33.2142 30.0707 33.3344 28.6441 33.7643ZM35.1131 41.7275L37.4802 45.2021L37.612 41.9517C37.6842 40.1642 37.9366 38.7013 38.1724 38.7013C38.7095 38.7013 38.7477 47.0761 38.2119 47.4074C37.9976 47.5397 36.8378 46.1897 35.634 44.4076L33.4453 41.1671L33.3094 44.0812C33.0763 49.085 32.3245 48.2982 32.3245 43.0501C32.3245 40.4117 32.419 38.253 32.5352 38.253C32.6508 38.253 33.8107 39.8163 35.1131 41.7275ZM27.8412 42.5251C27.8412 43.3366 25.0427 48.1023 24.693 47.8858C24.1891 47.5746 26.745 42.2879 27.3991 42.2879C27.6421 42.2879 27.8412 42.3946 27.8412 42.5251ZM43.0906 44.0929C43.4775 44.8156 43.3888 45.2657 42.658 46.292C41.5892 47.793 41.5363 48.0391 42.2998 47.9544C42.6082 47.9203 42.961 48.0938 43.0843 48.3404C43.3735 48.9183 40.4141 49.2119 39.8626 48.6605C39.604 48.4018 39.9685 47.7481 40.8162 46.9479C42.2711 45.5746 42.6356 44.0812 41.5152 44.0812C41.1453 44.0812 40.8427 44.283 40.8427 44.5296C40.8427 44.7762 40.5329 44.9779 40.1545 44.9779C39.6053 44.9779 39.5632 44.7968 39.946 44.0812C40.5768 42.9021 42.4571 42.9093 43.0906 44.0929ZM19.0988 51.7028C19.4274 51.7028 20.1102 51.1483 20.6164 50.4699C21.4857 49.3047 21.5368 49.2908 21.5502 50.2139C21.5583 50.751 21.2476 51.5074 20.8602 51.8952C19.366 53.389 16.6168 52.2919 16.6473 50.2139C16.6607 49.2908 16.7119 49.3047 17.5812 50.4699C18.0873 51.1483 18.7701 51.7028 19.0988 51.7028ZM14.7504 55.2061C14.676 55.8185 14.2936 56.521 13.9004 56.7672C13.0804 57.2805 10.8047 56.8407 10.8047 56.1691C10.8047 55.91 11.2978 55.8445 11.9735 56.014C13.3866 56.3686 14.0286 55.5661 13.626 53.9481C13.3718 52.9277 13.4171 52.8824 14.1156 53.4576C14.5599 53.8243 14.828 54.5623 14.7504 55.2061ZM24.5616 53.9875C24.1357 55.6163 24.667 56.2655 26.1577 55.9377C27.175 55.7145 27.4507 55.7898 27.2991 56.2511C27.0364 57.0505 24.8239 57.293 24.0035 56.612C23.2189 55.9611 23.1606 54.3211 23.8959 53.5858C24.6683 52.8133 24.8414 52.9178 24.5616 53.9875ZM20.6679 55.2895C21.1611 55.7826 21.5646 56.3879 21.5646 56.6344C21.5646 57.3146 20.6733 57.1702 20.3949 56.4448C19.9748 55.3495 18.9185 55.28 17.9811 56.2861L17.0813 57.2518V56.2928C17.0813 55.3482 18.1147 54.4332 19.2108 54.4063C19.5193 54.3991 20.1747 54.7963 20.6679 55.2895Z" fill="#C00F1A"/>
</svg>
