<svg width="64" height="64" viewBox="0 0 64 64" fill="none" xmlns="http://www.w3.org/2000/svg">
<path fill-rule="evenodd" clip-rule="evenodd" d="M42.5535 4.6118C40.5392 6.67458 40.4504 8.28468 42.2547 10.0134L43.5299 11.235V9.0961C43.5299 6.61592 44.3719 5.55031 46.3327 5.55031C47.3647 5.55031 48.4719 6.45057 52.7352 10.7572C55.5699 13.6208 58.1083 16.3947 58.3757 16.9205C58.6813 17.5219 59.2504 17.8768 59.9093 17.8768C62.1888 17.8768 61.1083 16.1566 54.6356 9.48205L48.35 3H46.2387C44.3549 3 43.9579 3.17385 42.5535 4.6118ZM24.4748 5.49676C24.1534 5.70036 23.9698 6.38597 24.0497 7.08433L24.19 8.31315L30.0608 8.43174L35.9316 8.54991L35.799 6.94746C35.6494 5.13886 34.3517 4.3878 34.1052 5.96729C33.9271 7.10941 33.1577 7.12641 32.9801 5.99237C32.7854 4.74824 30.8858 4.795 30.7018 6.04848C30.4986 7.42777 29.5031 7.54976 29.5031 6.19512C29.5031 5.21707 29.3493 5.08658 28.3342 5.20347C27.4973 5.29953 27.1267 5.6094 27.0293 6.29416C26.8449 7.59524 26.1027 7.51023 26.1027 6.18789C26.1027 5.10741 25.4953 4.84983 24.4748 5.49676ZM21.0042 11.6073L18.8934 13.8388L18.8853 18.1858L18.8768 22.5329L26.3867 22.6489C31.9319 22.7348 33.9424 22.9039 34.0729 23.2962C34.2097 23.7081 32.5231 23.8276 26.5631 23.8276C17.7249 23.8276 17.9192 23.7119 20.016 27.7215C22.0027 31.5214 21.8101 35.5845 19.4698 39.2268C18.8037 40.2635 18.4518 41.4362 18.4518 42.6195V44.4273L19.4345 42.9473C19.9747 42.1333 20.7709 40.5185 21.204 39.3585C22.721 35.2946 25.9535 32.9275 31.0962 32.1144C33.346 31.759 33.7294 32.431 32.7459 35.0064C31.2293 38.9781 28.1234 41.4001 23.6196 42.1231C21.0939 42.5286 19.5739 43.7557 19.0341 45.824C18.6868 47.1549 18.2839 47.0188 17.6875 45.3696C17.0563 43.6244 14.2748 40.309 13.726 40.6482C13.5042 40.785 13.8995 41.5544 14.6042 42.3569C16.205 44.1803 17.0818 45.8525 17.2553 47.4133C17.37 48.4474 17.2025 48.6706 16.0906 48.9664C15.3765 49.1564 14.339 49.7944 13.7851 50.384C13.1569 51.0526 12.3136 51.456 11.5443 51.456C10.162 51.456 7.82547 53.4699 7.82547 54.6609C7.82547 55.057 7.04847 56.1349 6.09891 57.0564C2.89656 60.1644 2.85959 60.1542 17.926 60.2817C31.1944 60.394 31.2033 60.3935 31.2033 59.4954C31.2033 59.0011 30.5322 57.9257 29.7123 57.1058C28.8919 56.2854 28.106 55.1565 27.9657 54.5967C27.6027 53.1502 25.4265 51.456 23.9316 51.456C23.2251 51.456 22.5718 51.1856 22.4383 50.8379C22.3079 50.4979 21.3574 49.8114 20.3267 49.3124C18.442 48.3998 17.8856 47.6305 19.1106 47.6305C19.9701 47.6305 21.9869 48.6812 22.6419 49.4705C22.9255 49.8123 23.8011 50.2127 24.587 50.3602C26.4547 50.7104 27.9734 51.938 28.6862 53.673C29.002 54.4407 29.8882 55.6648 30.6559 56.3934C31.4239 57.1223 32.1733 58.3257 32.3221 59.0678L32.592 60.4173L45.279 60.2932L57.9663 60.1695L59.3554 58.7805L60.7445 57.391L60.8648 40.6095L60.9851 23.8276H56.0477C52.2868 23.8276 51.1519 23.7009 51.2862 23.2962C51.4099 22.9235 52.8789 22.7292 56.2096 22.6446L60.957 22.5244V20.6256V18.7269H54.171C47.8973 18.7269 47.3519 18.6649 46.9452 17.9049C46.7033 17.4526 46.5052 16.7198 46.5052 16.2765C46.5052 15.8323 45.0936 14.1015 43.3628 12.423L40.22 9.37578H31.6675H23.1155L21.0042 11.6073ZM42.6806 15.539C42.6806 15.8081 38.7795 16.0057 32.0539 16.0776C22.7363 16.177 21.4271 16.1107 21.4271 15.539C21.4271 14.9673 22.7363 14.901 32.0539 15.0005C38.7795 15.0723 42.6806 15.27 42.6806 15.539ZM49.2379 20.6698C50.5849 22.0173 49.8432 24.6777 48.1204 24.6777C47.4255 24.6777 47.3553 25.1525 47.3553 29.8489V35.0205L49.7191 40.1096C51.1145 43.1143 51.9263 45.3548 51.7011 45.58C51.1829 46.0982 46.9775 37.3931 46.3773 34.5601C45.9437 32.5135 45.8064 32.3286 44.7175 32.3286C44.0642 32.3286 43.5299 32.1373 43.5299 31.9036C43.5299 31.6698 44.1037 31.4785 44.805 31.4785C45.9323 31.4785 46.0802 31.3336 46.0802 30.2314C46.0802 29.1968 45.8868 28.9618 44.944 28.85C43.2893 28.6545 43.1435 27.653 44.7697 27.653C45.9841 27.653 46.0802 27.5438 46.0802 26.1653V24.6777H42.7363H39.392L39.196 30.1128C39.026 34.8215 38.8513 35.8718 37.8877 37.9763C37.2765 39.3118 36.5743 40.4046 36.3274 40.4046C35.6511 40.4046 35.7803 39.7071 36.823 37.731C37.628 36.2047 37.7904 35.1136 37.9272 30.3096C38.0781 25.0054 38.0407 24.6777 37.2807 24.6777C36.0931 24.6777 35.4539 23.8369 35.4539 22.2761C35.4539 21.4086 35.7306 20.7332 36.1977 20.4611C36.607 20.2227 39.5577 20.0221 42.7558 20.0148C47.4867 20.0046 48.6942 20.1266 49.2379 20.6698ZM36.4557 21.9204C36.3197 22.274 36.4451 22.8478 36.7337 23.1955C37.1477 23.6945 38.3999 23.8276 42.6798 23.8276C46.9596 23.8276 48.2118 23.6945 48.6258 23.1955C48.9144 22.8478 49.0398 22.274 48.9038 21.9204C48.6998 21.3886 47.6231 21.2772 42.6798 21.2772C37.7364 21.2772 36.6597 21.3886 36.4557 21.9204ZM36.729 26.8029C36.729 27.0703 33.9662 27.228 29.2906 27.228C24.615 27.228 21.8522 27.0703 21.8522 26.8029C21.8522 26.5356 24.615 26.3779 29.2906 26.3779C33.9662 26.3779 36.729 26.5356 36.729 26.8029ZM58.2014 27.3921C58.7761 28.2689 58.8492 30.2514 58.7425 42.0474L58.6192 55.6882L57.441 56.8665L56.2632 58.0443H45.1506C36.6385 58.0443 33.9964 57.9197 33.8603 57.513C33.7214 57.0968 36.0889 56.9816 44.7697 56.9816C55.3149 56.9816 55.898 56.94 56.7124 56.1256C57.54 55.298 57.5647 54.8126 57.4563 41.355L57.3441 27.4405L52.9873 27.3194C47.2083 27.1587 47.2882 26.3779 53.0838 26.3779C57.3079 26.3779 57.571 26.4302 58.2014 27.3921ZM16.959 27.8133C15.3519 30.2663 15.0548 33.8324 16.2203 36.6769L16.9641 38.4919L17.1766 36.1872C17.4899 32.7898 18.4424 32.8174 18.4875 36.2251L18.5236 38.9169L19.3984 37.008C20.5728 34.4466 20.5443 31.2821 19.3248 28.7628C18.2456 26.5334 17.8911 26.3911 16.959 27.8133ZM4 33.8142C4 35.7422 6.45 38.8838 8.8881 40.0816C10.085 40.6698 12.9261 41.389 12.9261 41.1038C12.9261 41.0324 12.0501 40.3447 10.9794 39.5758C9.6617 38.6292 9.17204 38.0379 9.46405 37.7459C9.75606 37.4539 10.4604 37.7616 11.6429 38.698C12.6039 39.4593 13.4812 39.991 13.5926 39.8801C13.7035 39.7687 13.1688 38.7418 12.4037 37.5971C10.9224 35.3805 8.53148 33.9111 5.59395 33.4112C4.30859 33.1927 4 33.2705 4 33.8142ZM28.2769 33.8167C26.291 34.436 23.8665 36.4784 22.8787 38.3643C21.9627 40.1126 22.1255 40.1644 24.0612 38.7414C25.0422 38.0196 25.9986 37.4292 26.1865 37.4292C27.0268 37.4292 26.3718 38.3597 24.5538 39.7475C23.4682 40.5763 22.7639 41.2547 22.9892 41.2547C24.4654 41.2547 27.8374 39.7883 29.0203 38.6313C30.3719 37.3102 32.0535 34.5321 32.0535 33.6208C32.0535 33.0295 30.5517 33.1073 28.2769 33.8167ZM38.3489 42.5464C39.3044 43.4365 39.5671 44.2301 38.9061 44.2301C38.7013 44.2301 38.2873 43.9334 37.9863 43.5708C37.682 43.2044 36.9518 42.9685 36.3405 43.0395C35.4853 43.139 35.2413 43.4033 35.2413 44.2301C35.2413 45.0202 35.623 45.4827 36.729 46.0331C38.4543 46.8918 39.2793 47.8711 39.2793 49.0595C39.2793 51.2634 35.9401 52.3175 34.3887 50.6033C33.3851 49.4939 33.8472 49.0506 35.096 49.9249C36.3103 50.7754 36.9165 50.7827 37.7432 49.9559C38.6503 49.0489 38.1763 48.1605 36.2657 47.1859C33.7167 45.8856 33.0672 44.0664 34.6038 42.5299C35.6936 41.44 37.1685 41.4464 38.3489 42.5464ZM46.6591 43.4731C47.7553 44.6462 47.8569 45.0011 47.6865 47.0562C47.4488 49.9202 46.1877 51.456 44.0731 51.456C39.9577 51.456 38.8505 44.117 42.6798 42.2238C44.0727 41.5352 45.1701 41.88 46.6591 43.4731ZM42.2857 44.0749C41.0276 45.674 41.1028 48.2175 42.4481 49.5624C43.0219 50.1362 43.7037 50.6059 43.9634 50.6059C45.9467 50.6059 47.3141 47.7444 46.504 45.2893C45.6845 42.8053 43.7271 42.2421 42.2857 44.0749ZM33.3286 47.0069C33.3286 47.3657 32.8355 48.6319 32.2328 49.8212C30.9891 52.2755 31.1086 53.7678 32.5801 54.1623C33.1089 54.3038 37.7759 54.4224 42.9514 54.4254C51.4448 54.4309 52.4555 54.3557 53.3231 53.6531C54.0979 53.0253 54.2242 52.6342 53.973 51.6341C53.5798 50.0677 53.5828 50.0176 54.0758 49.8535C54.6344 49.6673 55.4568 52.1564 55.1363 53.0618C54.3474 55.2895 54.3933 55.2814 42.6449 55.2814H31.69L30.8093 54.1614C29.6791 52.7247 29.6821 52.6958 31.2663 49.2584C32.5503 46.4726 33.3286 45.623 33.3286 47.0069ZM52.2133 47.4481C53.1458 48.3807 53.051 49.0633 51.7806 50.5731L50.6801 51.881H51.7806C52.4755 51.881 52.881 52.1161 52.881 52.5186C52.881 53.0002 52.3616 53.1562 50.7558 53.1562C48.1736 53.1562 48.0397 52.6206 50.1182 50.6059C51.7886 48.9868 52.0216 48.0555 50.7558 48.0555C50.2882 48.0555 49.9056 48.2468 49.9056 48.4806C49.9056 48.7144 49.6187 48.9056 49.2681 48.9056C48.443 48.9056 48.4617 48.5214 49.334 47.5578C50.1972 46.6036 51.3257 46.5611 52.2133 47.4481ZM16.3265 51.6417C16.3265 52.5084 17.472 53.2548 18.3668 52.9704C18.8101 52.8297 19.4298 52.1926 19.7439 51.5541C20.3118 50.3993 20.3156 50.3984 20.4801 51.3846C20.7012 52.7103 19.4558 54.0063 17.9608 54.0063C16.1556 54.0063 14.347 51.8768 15.323 50.9008C15.7068 50.517 16.3265 50.9744 16.3265 51.6417ZM13.3512 56.3959C13.3512 57.4271 12.0169 59.1069 11.1978 59.1069C10.4468 59.1069 9.10063 58.2572 9.10063 57.7829C9.10063 57.5134 9.58944 57.4466 10.346 57.6128C11.3075 57.8237 11.6888 57.7051 12.0169 57.0922C12.2634 56.6314 12.2877 56.0491 12.0743 55.7039C11.5562 54.8653 12.0326 54.2911 12.7514 54.8878C13.0812 55.1616 13.3512 55.8404 13.3512 56.3959ZM23.7649 56.2748C23.7649 57.5006 23.8835 57.6192 25.1094 57.6192C26.8423 57.6192 27.2661 58.0591 26.1231 58.6708C24.95 59.299 23.7016 58.8799 22.8434 57.5695C22.2823 56.7134 22.2483 56.3203 22.6581 55.4217C23.2693 54.0802 23.7649 54.4624 23.7649 56.2748ZM19.7537 57.0084C20.6612 57.9159 20.6825 58.7176 19.8068 59.0096C19.5289 59.1022 19.3019 58.8816 19.3019 58.5199C19.3019 57.4369 17.7802 56.8635 16.9934 57.6502C16.6266 58.0175 16.3265 58.4953 16.3265 58.712C16.3265 58.9292 16.1352 59.1069 15.9015 59.1069C15.2341 59.1069 15.4042 57.7663 16.1799 56.909C17.1112 55.8799 18.6686 55.9233 19.7537 57.0084Z" fill="#C00F1A"/>
</svg>
