<svg version="1.0" xmlns="http://www.w3.org/2000/svg"
 width="551.000000pt" height="322.000000pt" viewBox="0 0 551.000000 322.000000"
 preserveAspectRatio="xMidYMid meet">

<g transform="translate(0.000000,322.000000) scale(0.100000,-0.100000)" stroke="none">
<path fill="#C00F1A" d="M1625 3076 c21 -14 1981 -1294 2073 -1353 l52 -34 0 701 0 700 -1072
0 c-912 0 -1070 -2 -1053 -14z"/>
<path fill="#C00F1A" d="M1790 1915 l0 -695 1067 0 c631 0 1063 4 1057 9 -14 14 -2112 1381
-2118 1381 -3 0 -6 -313 -6 -695z"/>
<path fill="#fff" d="M570 620 l0 -460 65 0 65 0 0 282 c0 155 3 279 6 276 3 -4 33 -129
68 -280 l62 -273 54 -3 55 -3 54 263 c29 145 57 272 62 283 4 11 8 -107 8
-262 l1 -283 65 0 65 0 0 460 0 460 -93 0 -94 0 -58 -320 c-32 -176 -61 -317
-64 -314 -3 3 -33 146 -67 317 l-60 312 -97 3 -97 3 0 -461z"/>
<path fill="#fff" d="M1470 1075 c0 -3 -34 -208 -75 -455 -41 -247 -75 -452 -75 -455 0 -3
31 -5 69 -5 l69 0 5 33 c3 17 11 67 18 109 l12 78 72 0 72 0 12 -87 c20 -143
13 -133 92 -133 38 0 69 2 69 5 0 3 -34 208 -75 455 -41 247 -75 452 -75 455
0 3 -43 5 -95 5 -52 0 -95 -2 -95 -5z m123 -392 l24 -163 -52 0 -52 0 23 158
c13 86 24 164 25 172 2 30 9 -9 32 -167z"/>
<path fill="#fff" d="M1930 621 l0 -461 65 0 65 0 0 175 0 175 50 0 c28 0 50 -3 50 -6 0
-7 56 -251 71 -306 l10 -38 69 0 c39 0 70 3 70 8 0 4 -21 93 -46 197 l-47 190
33 53 c31 49 34 60 38 155 5 121 -8 198 -44 244 -44 58 -73 67 -236 71 l-148
4 0 -461z m271 300 c22 -18 24 -26 24 -119 0 -92 -2 -102 -24 -126 -21 -22
-33 -26 -83 -26 l-58 0 0 145 0 145 59 0 c43 0 65 -5 82 -19z"/>
<path fill="#fff" d="M2420 1077 c0 -2 41 -122 90 -266 l90 -262 0 -195 0 -194 70 0 70 0
0 198 0 199 84 244 c46 134 87 252 91 262 6 15 0 17 -68 17 l-76 0 -36 -117
c-20 -65 -41 -134 -47 -153 -6 -19 -13 -38 -17 -42 -3 -4 -28 64 -55 152 l-49
160 -73 0 c-41 0 -74 -1 -74 -3z"/>
<path fill="#fff" d="M3040 620 l0 -460 185 0 185 0 0 70 0 70 -120 0 -120 0 0 390 0 390
-65 0 -65 0 0 -460z"/>
<path fill="#fff" d="M3650 1075 c0 -3 -34 -208 -75 -455 -41 -247 -75 -452 -75 -455 0 -3
31 -5 69 -5 l69 0 5 33 c3 17 11 67 18 109 l12 78 72 0 72 0 12 -87 c20 -143
13 -133 92 -133 38 0 69 2 69 5 0 3 -34 208 -75 455 -41 247 -75 452 -75 455
0 3 -43 5 -95 5 -52 0 -95 -2 -95 -5z m123 -392 l24 -163 -52 0 -52 0 23 158
c13 86 24 164 25 172 2 30 9 -9 32 -167z"/>
<path fill="#fff" d="M4110 620 l0 -460 65 0 65 0 0 293 c0 162 4 285 9 277 5 -8 48 -140
96 -292 l88 -278 74 0 73 0 0 460 0 460 -70 0 -70 0 -1 -302 0 -303 -69 235
c-39 129 -79 265 -90 303 l-21 67 -74 0 -75 0 0 -460z"/>
<path fill="#fff" d="M4710 620 l0 -460 118 0 c151 0 185 10 243 70 63 65 69 97 69 390 0
293 -6 325 -69 390 -58 60 -92 70 -243 70 l-118 0 0 -460z m271 294 l24 -26 0
-268 0 -268 -24 -26 c-21 -22 -33 -26 -83 -26 l-58 0 0 320 0 320 58 0 c50 0
62 -4 83 -26z"/>
</g>
</svg>
